HIERARCHY
ROOT Hips
{
 OFFSET 0.000000 0.000000 0.000000
 CHANNELS 6 Xposition Yposition Zposition Yrotation Xrotation Zrotation
 JOINT Chest
 {
  OFFSET 0.000000 9.585900 0.002600
  CHANNELS 3 Yrotation Xrotation Zrotation
  JOINT Chest2
  {
   OFFSET 0.000000 9.601200 -0.005300
   CHANNELS 3 Yrotation Xrotation Zrotation
   JOINT Chest3
   {
    OFFSET 0.000000 9.561800 0.000000
    CHANNELS 3 Yrotation Xrotation Zrotation
    JOINT Chest4
    {
     OFFSET 0.000000 9.552100 0.000000
     CHANNELS 3 Yrotation Xrotation Zrotation
     JOINT Neck
     {
      OFFSET 0.000000 14.453000 0.000000
      CHANNELS 3 Yrotation Xrotation Zrotation
      JOINT Head
      {
       OFFSET 0.000000 8.936500 -0.011300
       CHANNELS 3 Yrotation Xrotation Zrotation
       End Site
       {
        OFFSET 0.000000 17.073600 -0.006000
       }
      }
     }
     JOINT RightCollar
     {
      OFFSET -2.921100 9.558500 0.000000
      CHANNELS 3 Yrotation Xrotation Zrotation
      JOINT RightShoulder
      {
       OFFSET -13.519700 0.000000 0.000000
       CHANNELS 3 Yrotation Xrotation Zrotation
       JOINT RightElbow
       {
        OFFSET 0.000000 -29.696600 0.000000
        CHANNELS 3 Yrotation Xrotation Zrotation
        JOINT RightWrist
        {
         OFFSET 0.000000 -24.004700 0.000000
         CHANNELS 3 Yrotation Xrotation Zrotation
         End Site
         {
          OFFSET 0.000000 -17.728500 0.000000
         }
        }
       }
      }
     }
     JOINT LeftCollar
     {
      OFFSET 2.921100 9.558500 0.000000
      CHANNELS 3 Yrotation Xrotation Zrotation
      JOINT LeftShoulder
      {
       OFFSET 13.519700 0.000000 0.000000
       CHANNELS 3 Yrotation Xrotation Zrotation
       JOINT LeftElbow
       {
        OFFSET 0.000000 -29.696600 0.000000
        CHANNELS 3 Yrotation Xrotation Zrotation
        JOINT LeftWrist
        {
         OFFSET 0.000000 -24.004700 0.000000
         CHANNELS 3 Yrotation Xrotation Zrotation
         End Site
         {
          OFFSET 0.000000 -17.728500 0.000000
         }
        }
       }
      }
     }
    }
   }
  }
 }
 JOINT RightHip
 {
  OFFSET -7.771700 -0.012900 -0.001300
  CHANNELS 3 Yrotation Xrotation Zrotation
  JOINT RightKnee
  {
   OFFSET 0.000000 -40.869800 0.001200
   CHANNELS 3 Yrotation Xrotation Zrotation
   JOINT RightAnkle
   {
    OFFSET 0.000000 -39.717900 0.002100
    CHANNELS 3 Yrotation Xrotation Zrotation
    JOINT RightToe
    {
     OFFSET 0.000000 -4.965400 11.033500
     CHANNELS 3 Yrotation Xrotation Zrotation
     End Site
     {
      OFFSET 0.000000 -1.423100 5.872300
     }
    }
   }
  }
 }
 JOINT LeftHip
 {
  OFFSET 7.771700 -0.012900 -0.001300
  CHANNELS 3 Yrotation Xrotation Zrotation
  JOINT LeftKnee
  {
   OFFSET 0.000000 -40.869800 0.001200
   CHANNELS 3 Yrotation Xrotation Zrotation
   JOINT LeftAnkle
   {
    OFFSET 0.000000 -39.717900 0.002100
    CHANNELS 3 Yrotation Xrotation Zrotation
    JOINT LeftToe
    {
     OFFSET 0.000000 -4.965400 11.033500
     CHANNELS 3 Yrotation Xrotation Zrotation
     End Site
     {
      OFFSET 0.000000 -1.423100 5.872300
     }
    }
   }
  }
 }
}
MOTION
Frames: 13
Frame Time: 0.008333
-16.510369 57.834578 39.971317 -148.980840 -32.357183 -1.769926 -15.932378 20.227052 -2.460525 -2.467676 3.267902 -0.124363 -3.774219 5.279841 -0.248028 -12.755541 16.813249 -2.136441 0.768397 18.756848 -2.449156 2.165200 -0.867837 -4.714902 2.440749 0.210399 -1.483481 0.469368 -14.167670 -13.896617 167.901939 -47.499626 -149.417739 21.557684 -17.553878 -48.831906 -3.844947 0.307910 0.175898 17.043456 -3.461107 0.496556 -166.910589 -35.632870 151.747778 -13.934001 -11.911545 34.244541 -1.118785 -36.308454 -28.031046 -6.694612 68.188864 -7.470057 6.458632 8.228396 11.205145 -0.245590 -5.886589 0.942746 -19.740655 -50.307278 -23.483806 26.773313 68.114980 25.405684 -13.984827 31.901806 0.132089 0.724450 -20.609248 -6.257452
-16.511365 57.832970 39.970237 -148.918250 -32.339365 -1.790518 -15.918419 20.233013 -2.435771 -2.466523 3.269075 -0.123820 -3.775078 5.283900 -0.245824 -12.751916 16.820177 -2.130917 0.761864 18.726834 -2.447645 2.133065 -0.896242 -4.693959 2.445243 0.204315 -1.485234 0.432551 -14.184220 -13.887193 167.966001 -47.498925 -149.421348 21.571460 -17.539218 -48.843226 -3.837583 0.297615 0.185208 17.047071 -3.459576 0.507966 -166.958101 -35.617975 151.754063 -13.958242 -11.888493 34.257808 -1.128110 -36.309243 -28.041017 -6.732276 68.203387 -7.519313 6.451165 8.206023 11.237847 -0.254220 -5.885733 0.944186 -19.764187 -50.329707 -23.456524 26.841960 68.101015 25.420943 -14.067531 31.954492 0.161427 0.755445 -20.653857 -6.258059
-16.512579 57.831542 39.968938 -148.887176 -32.326996 -1.795101 -15.877024 20.244816 -2.410994 -2.398977 3.295179 -0.113553 -3.840621 5.261292 -0.247735 -12.745781 16.826503 -2.124813 0.754670 18.697530 -2.444698 2.149562 -0.992736 -4.713207 2.441626 0.200628 -1.490426 0.460785 -14.187975 -13.893714 167.955112 -47.499269 -149.430278 21.569392 -17.534155 -48.844469 -3.831496 0.288380 0.195865 17.053459 -3.456533 0.518791 -166.946060 -35.616155 151.744973 -13.940868 -11.904389 34.247412 -1.101522 -36.303888 -28.056617 -6.770262 68.218657 -7.557584 6.437099 8.186027 11.268208 -0.256081 -5.883799 0.943403 -19.769248 -50.345789 -23.426980 26.903563 68.087746 25.426862 -14.147139 32.001545 0.192765 0.780686 -20.696750 -6.259572
-16.513978 57.829525 39.968893 -148.828282 -32.308257 -1.811846 -15.856841 20.248860 -2.385823 -2.398018 3.296284 -0.112487 -3.839012 5.263121 -0.246075 -12.739475 16.832086 -2.118982 0.747133 18.669974 -2.440192 2.146409 -1.057969 -4.711946 2.492554 0.219758 -1.513738 0.426078 -14.210958 -13.878586 167.946837 -47.499137 -149.439717 21.572423 -17.527047 -48.845401 -3.827160 0.279921 0.205881 17.061806 -3.452290 0.531448 -166.961122 -35.610529 151.742856 -13.983183 -11.856029 34.261794 -1.099058 -36.302245 -28.086666 -6.808533 68.229930 -7.579615 6.428308 8.170370 11.284899 -0.258723 -5.882583 0.943846 -19.802830 -50.365417 -23.399710 26.918403 68.078353 25.398157 -14.206107 32.017464 0.213872 0.783675 -20.726799 -6.252237
-16.515118 57.827866 39.968383 -148.719604 -32.290577 -1.860792 -15.875689 20.254242 -2.355059 -2.397097 3.297400 -0.111532 -3.874845 5.254061 -0.247344 -12.736715 16.834732 -2.116364 0.743351 18.656720 -2.437666 2.160980 -1.108135 -4.721341 2.546105 0.234847 -1.534624 0.412507 -14.222385 -13.872306 167.956732 -47.500482 -149.450283 21.521109 -17.563006 -48.785494 -3.784561 0.283851 0.200915 17.069606 -3.449440 0.546437 -166.971546 -35.605464 151.739955 -13.966945 -11.869007 34.257736 -1.115693 -36.276804 -28.114893 -6.902642 68.234113 -7.641808 6.419984 8.145075 11.299428 -0.254007 -5.875633 0.956835 -19.882346 -50.377950 -23.374566 26.858806 68.080351 25.322506 -14.245840 31.994563 0.206171 0.806960 -20.707721 -6.245745
-16.524792 57.828989 39.967764 -148.710149 -32.306850 -1.816533 -15.864880 20.267272 -2.392795 -2.360657 3.308203 -0.107086 -3.852739 5.261085 -0.243763 -12.789397 16.821782 -2.108142 0.787468 18.643226 -2.451810 2.107610 -1.130317 -4.685086 2.545413 0.232816 -1.536682 0.459532 -14.221391 -13.886878 167.969800 -47.506393 -149.462397 21.499783 -17.577271 -48.750781 -3.762137 0.285394 0.199006 17.095541 -3.443312 0.556576 -166.954066 -35.601453 151.731640 -13.969565 -11.862012 34.265464 -1.070717 -36.253471 -28.172130 -6.883320 68.246460 -7.643620 6.399158 8.119255 11.322855 -0.256605 -5.864892 0.961024 -19.822180 -50.374830 -23.431639 27.038792 68.035822 25.420769 -14.232488 32.058668 0.359731 0.745638 -20.760725 -6.286371
-16.532562 57.830539 39.965832 -148.705682 -32.324874 -1.786263 -15.846257 20.286552 -2.415829 -2.323190 3.319062 -0.102094 -3.830379 5.268007 -0.241068 -12.734292 16.844305 -2.101453 0.742146 18.599257 -2.432281 2.051308 -1.153833 -4.647205 2.490347 0.213675 -1.521150 0.453701 -14.238279 -13.887115 167.990644 -47.516092 -149.477212 21.495171 -17.578327 -48.734922 -3.883325 0.249807 0.242311 17.156328 -3.427132 0.557164 -166.948560 -35.591056 151.727811 -13.990412 -11.837671 34.277192 -1.035779 -36.228517 -28.207230 -6.857427 68.259041 -7.638241 6.378004 8.094861 11.344742 -0.255119 -5.856039 0.963775 -19.773613 -50.363717 -23.470068 27.144080 68.009597 25.472320 -14.221489 32.098618 0.479973 0.690982 -20.800254 -6.322526
-16.540236 57.831883 39.964760 -148.672241 -32.337723 -1.771333 -15.812678 20.313790 -2.419368 -2.325803 3.318480 -0.101835 -3.825884 5.269687 -0.239441 -12.697731 16.859305 -2.095732 0.713630 18.568696 -2.419552 2.071418 -1.237330 -4.659399 2.471704 0.207767 -1.515703 0.448760 -14.256465 -13.889791 168.014731 -47.527310 -149.492498 21.494372 -17.576069 -48.724428 -3.854207 0.250246 0.246344 17.099273 -3.444538 0.572179 -166.936477 -35.578905 151.720543 -13.992350 -11.830817 34.284034 -0.995068 -36.188612 -28.243147 -6.915909 68.264664 -7.702046 6.346934 8.061450 11.371115 -0.246632 -5.837816 0.973621 -19.734638 -50.347255 -23.510031 27.176990 67.983081 25.478007 -14.229490 32.127728 0.568000 0.651597 -20.825437 -6.352905
-16.549952 57.833736 39.964467 -148.641608 -32.355484 -1.742903 -15.788572 20.339704 -2.439490 -2.356713 3.310231 -0.105418 -3.788991 5.279525 -0.236947 -12.683814 16.866565 -2.090489 0.704746 18.547054 -2.414009 2.065482 -1.289103 -4.654360 2.428005 0.194985 -1.502135 0.496033 -14.258768 -13.909538 168.041297 -47.538906 -149.510760 21.496184 -17.570155 -48.714750 -3.854531 0.247626 0.253874 17.098343 -3.449873 0.575908 -166.926789 -35.569251 151.711614 -13.993131 -11.826315 34.292869 -0.971036 -36.162069 -28.296650 -6.894260 68.279025 -7.698252 6.319590 8.039228 11.391704 -0.228077 -5.831898 0.976048 -19.674558 -50.330178 -23.573879 27.223208 67.949431 25.505511 -14.215360 32.174011 0.662584 0.598601 -20.862859 -6.387257
-16.561119 57.836382 39.964255 -148.615935 -32.381359 -1.703873 -15.764704 20.372155 -2.472217 -2.386653 3.301005 -0.107566 -3.755108 5.287366 -0.233626 -12.672127 16.872520 -2.086326 0.696029 18.528293 -2.409693 2.048810 -1.324484 -4.644247 2.439631 0.198871 -1.508644 0.443923 -14.277018 -13.894883 168.081226 -47.544647 -149.523437 21.483297 -17.579027 -48.690675 -3.868603 0.243364 0.264416 17.114991 -3.451174 0.574837 -166.921770 -35.562431 151.705489 -13.997361 -11.820336 34.301951 -0.931698 -36.122691 -28.357677 -6.892558 68.291414 -7.720385 6.299508 8.003266 11.426592 -0.231299 -5.815628 0.977223 -19.596846 -50.306916 -23.650763 27.274358 67.912611 25.543924 -14.184803 32.228504 0.768713 0.531164 -20.903164 -6.429667
-16.563046 57.835653 39.965844 -148.567674 -32.366337 -1.717333 -15.747670 20.372178 -2.451953 -2.383805 3.301443 -0.106946 -3.753181 5.289387 -0.232666 -12.664270 16.877289 -2.082589 0.663436 18.510314 -2.397091 2.041156 -1.340972 -4.640256 2.450255 0.201549 -1.514929 0.463581 -14.285165 -13.909413 168.095447 -47.554409 -149.548015 21.490420 -17.568775 -48.684327 -3.871175 0.241073 0.270316 17.122669 -3.454550 0.575319 -166.919495 -35.553788 151.703025 -14.003686 -11.810407 34.306910 -0.940763 -36.117885 -28.377717 -6.934505 68.291503 -7.750863 6.289964 7.976117 11.435624 -0.233998 -5.796679 0.979056 -19.594530 -50.312302 -23.666120 27.355053 67.879173 25.609071 -13.736365 32.297139 0.855885 0.562475 -20.918101 -6.419297
-16.551611 57.828553 39.972346 -148.430785 -32.274793 -1.829417 -15.779203 20.316479 -2.355719 -2.341331 3.312114 -0.102942 -3.811768 5.275156 -0.234151 -12.659383 16.880583 -2.079657 0.647723 18.497532 -2.390813 2.034852 -1.357223 -4.637706 2.464779 0.204994 -1.520863 0.498807 -14.289663 -13.929185 168.133029 -47.562008 -149.570256 21.513875 -17.546542 -48.695755 -3.854653 0.244703 0.268334 17.110829 -3.463195 0.579732 -166.935536 -35.543492 151.701677 -14.031547 -11.781977 34.325775 -1.076760 -36.189019 -28.326345 -6.973092 68.287425 -7.781539 6.312474 7.953756 11.453859 -0.256035 -5.786072 0.970130 -19.721446 -50.369218 -23.594588 27.411849 67.858916 25.652606 -12.728240 32.349242 0.857197 0.782472 -20.847187 -6.294109
-16.549541 57.824244 39.979525 -148.293508 -32.216023 -1.890475 -15.838230 20.276619 -2.326401 -2.328989 3.313630 -0.103442 -3.822850 5.271580 -0.233492 -12.650961 16.884091 -2.075622 0.640639 18.486583 -2.388046 2.019093 -1.388402 -4.631995 2.455538 0.206107 -1.515963 0.522004 -14.293134 -13.947021 168.164240 -47.570393 -149.591198 21.549542 -17.518416 -48.720588 -3.883716 0.242653 0.281560 17.096798 -3.469606 0.583223 -166.916922 -35.542593 151.702397 -14.041989 -11.769444 34.335805 -1.180229 -36.227363 -28.333783 -7.011635 68.283732 -7.825944 6.307885 7.933986 11.461823 -0.245832 -5.776921 0.976610 -19.796578 -50.417215 -23.611465 27.506993 67.826512 25.729445 -11.797785 32.374890 0.880741 0.958581 -20.757149 -6.189615
